<svg xmlns="http://www.w3.org/2000/svg" xmlns:xlink="http://www.w3.org/1999/xlink" version="1.1" x="0px" y="0px" viewBox="0 0 100 125" enable-background="new 0 0 100 100" xml:space="preserve"><path d="M49.164,52.574c-4.537-4.536-10.495-6.804-16.455-6.804c-5.962,0-11.927,2.271-16.469,6.81  c-4.396,4.391-6.816,10.246-6.816,16.459c0,6.219,2.421,12.064,6.816,16.459c4.442,4.438,10.458,6.801,16.532,6.801  c3.19,0,6.396-0.648,9.409-2c0.883-0.389,1.278-1.424,0.888-2.301c-0.292-0.657-0.933-1.051-1.607-1.051  c-0.237,0-0.479,0.049-0.71,0.152c-2.556,1.139-5.282,1.691-7.992,1.691c-5.161,0-10.267-2.004-14.038-5.775  c-3.741-3.73-5.793-8.697-5.793-13.977c0-5.283,2.052-10.25,5.793-13.986c3.853-3.852,8.916-5.778,13.979-5.778  c5.063,0,10.128,1.927,13.983,5.778c4.656,4.656,6.682,11.285,5.424,17.758c-0.187,0.957,0.437,1.871,1.388,2.062  c0.113,0.022,0.226,0.033,0.337,0.033c0.825,0,1.555-0.592,1.72-1.43C57.031,65.871,54.635,58.057,49.164,52.574z"/><path d="M86.4,9.314C81.13,4.598,74.334,2,67.265,2c-8.167,0-15.969,3.488-21.407,9.57L20.155,40.312l-6.611,7.393  C7.704,52.993,4.028,60.63,4.028,69.11C4.028,85.04,16.983,98,32.907,98c9.581,0,18.083-4.694,23.34-11.899l6.719-7.514  l25.691-28.731c5.113-5.716,7.695-13.08,7.27-20.737C95.501,21.459,92.118,14.426,86.4,9.314z M32.907,95  C18.614,95,7.028,83.409,7.028,69.11c0-10.164,5.866-18.958,14.397-23.19l2.068-0.817c3.017-1.191,6.185-1.796,9.414-1.796  c14.232,0,25.81,11.575,25.81,25.804c0,2.236-0.298,4.492-0.887,6.706l-0.488,1.838C53.813,87.754,44.21,95,32.907,95z   M86.421,47.855L60.84,76.464c0.619-2.35,0.951-4.812,0.951-7.354c0-15.923-12.958-28.878-28.884-28.878  c-3.663,0-7.166,0.692-10.393,1.942l25.58-28.604C53.171,7.892,60.202,5,67.265,5c6.104,0,12.232,2.162,17.136,6.551  C94.989,21.016,95.888,37.273,86.421,47.855z"/><text x="0" y="115" fill="#000000" font-size="5px" font-weight="bold" font-family="'Helvetica Neue', Helvetica, Arial-Unicode, Arial, Sans-serif">Created by Skeccio</text><text x="0" y="120" fill="#000000" font-size="5px" font-weight="bold" font-family="'Helvetica Neue', Helvetica, Arial-Unicode, Arial, Sans-serif">from the Noun Project</text></svg>