<svg xmlns="http://www.w3.org/2000/svg" xmlns:xlink="http://www.w3.org/1999/xlink" viewBox="0 0 64 80" version="1.1"
  x="0px" y="0px">
  <g stroke="none" stroke-width="1" fill="none" fill-rule="evenodd">
    <path
      d="M19,35 L45,35 L45,14 L19,14 L19,35 Z M19,12 L45,12 C46.1045695,12 47,12.8954305 47,14 C47,18.4517772 47,21.7906102 47,24.0164988 C47,26.9017213 47,31.229555 47,37 L17,37 L17,14 C17,12.8954305 17.8954305,12 19,12 Z M29,14 L29,19 L32,18 L35,19 L35,14 L29,14 Z M27,12 L37,12 L37,22 L32,20 L27,22 L27,12 Z M33,58 L59,58 L59,37 L33,37 L33,58 Z M33,35 L59,35 C60.1045695,35 61,35.8954305 61,37 L61,60 L31,60 L31,37 C31,35.8954305 31.8954305,35 33,35 Z M43,37 L43,42 L46,41 L49,42 L49,37 L43,37 Z M41,35 L51,35 L51,45 L46,43 L41,45 L41,35 Z M5,58 L31,58 L31,37 L5,37 L5,58 Z M5,35 L31,35 C32.1045695,35 33,35.8954305 33,37 L33,60 L3,60 L3,37 C3,35.8954305 3.8954305,35 5,35 Z M15,37 L15,42 L18,41 L21,42 L21,37 L15,37 Z M13,35 L23,35 L23,45 L18,43 L13,45 L13,35 Z"
      fill="#459cd6" fill-rule="nonzero" />
  </g>
</svg>