<svg xmlns="http://www.w3.org/2000/svg" xmlns:xlink="http://www.w3.org/1999/xlink" version="1.1" x="0px" y="0px" viewBox="0 0 24 30" enable-background="new 0 0 24 24" xml:space="preserve"><g><path d="M13.083,20.662c0.002,0,0.019,0.001,0.021,0.001c0.667,0,1.213-0.543,1.215-1.21c0.003-0.674-0.523-1.208-1.214-1.216   c-0.675,0-1.207,0.524-1.212,1.194C11.888,20.101,12.423,20.653,13.083,20.662z M13.111,18.937c0.295,0.004,0.509,0.22,0.508,0.515   c-0.002,0.286-0.228,0.512-0.516,0.512h-0.01c-0.278-0.004-0.503-0.24-0.502-0.526C12.595,19.156,12.819,18.937,13.111,18.937z"/><path d="M11.863,15.373c0.252,0.253,0.584,0.392,0.935,0.392c0,0,0.002,0,0.003,0c0.716-0.001,1.301-0.589,1.305-1.31   c0.002-0.357-0.132-0.691-0.378-0.938c-0.245-0.246-0.576-0.382-0.939-0.382c-0.721,0.002-1.309,0.588-1.311,1.304   C11.476,14.789,11.612,15.12,11.863,15.373z M12.795,13.834c0.168,0,0.323,0.063,0.437,0.177s0.176,0.271,0.175,0.44   c-0.002,0.338-0.275,0.613-0.608,0.614c-0.164-0.001-0.319-0.066-0.438-0.187c-0.118-0.119-0.184-0.274-0.183-0.438   C12.179,14.108,12.453,13.836,12.795,13.834z"/><path d="M10.599,11.236h0.002c0.308,0,0.595-0.118,0.81-0.334c0.218-0.219,0.336-0.514,0.334-0.829   c-0.004-0.635-0.501-1.133-1.137-1.136c-0.646,0-1.155,0.5-1.16,1.14c-0.002,0.307,0.117,0.597,0.337,0.817   C10.003,11.115,10.293,11.236,10.599,11.236z M10.61,9.537c0.303,0.001,0.532,0.233,0.534,0.54c0.001,0.154-0.056,0.297-0.16,0.402   c-0.101,0.102-0.237,0.157-0.385,0.157l-0.001,0.3v-0.3c-0.146,0-0.283-0.059-0.389-0.165c-0.106-0.106-0.164-0.245-0.163-0.39   C10.05,9.771,10.291,9.537,10.61,9.537z"/><path d="M9.72,22.421c0.003,0,0.031,0.001,0.034,0.001c0.666,0,1.215-0.546,1.223-1.216c0.005-0.336-0.118-0.649-0.347-0.882   c-0.228-0.231-0.539-0.36-0.88-0.361c-0.676,0-1.217,0.522-1.231,1.188C8.502,21.834,9.041,22.403,9.72,22.421z M9.753,20.662   c0.147,0.001,0.281,0.056,0.378,0.153s0.148,0.233,0.146,0.382c-0.004,0.289-0.238,0.524-0.523,0.524H9.738   c-0.289-0.008-0.527-0.261-0.521-0.554C9.225,20.88,9.453,20.662,9.753,20.662z"/><path d="M1.628,23.761c0.352,0.116,0.713,0.179,1.044,0.18c2.934,0.004,5.866,0.007,8.8,0.007c3.284,0,6.568-0.004,9.853-0.013   c0.541-0.002,1.049-0.175,1.38-0.32c0.941-0.414,1.385-1.294,1.187-2.354c-0.128-0.677-0.444-1.321-0.996-2.026   c-2.339-2.996-4.677-5.991-7.008-8.993c-0.037-0.048-0.067-0.142-0.07-0.213c-0.012-0.409-0.01-0.818-0.008-1.229l0.002-2.005   c0-1.965,0-4.016-0.004-5.938h0.909c0.221,0,0.4-0.18,0.4-0.4s-0.18-0.4-0.4-0.4h-0.998c-0.033-0.004-0.066-0.003-0.102,0h-7.03   C8.551,0.054,8.512,0.053,8.501,0.053L7.754,0.056c-0.083-0.002-0.172-0.002-0.261,0H6.835c-0.221,0-0.4,0.18-0.4,0.4   s0.18,0.4,0.4,0.4h1.354l-0.009,9.232c0,0.029-0.019,0.087-0.042,0.118c-0.455,0.596-0.916,1.186-1.378,1.775l-5.759,7.383   c-0.418,0.537-0.694,1.08-0.845,1.662C-0.176,22.304,0.388,23.351,1.628,23.761z M7.392,12.475   c0.463-0.592,0.926-1.184,1.382-1.781c0.13-0.169,0.208-0.396,0.208-0.604l0.008-9.233h6.018c0.004,1.923,0.004,3.974,0.004,5.938   l-0.002,2c-0.002,0.42-0.005,0.84,0.009,1.259c0.008,0.243,0.097,0.496,0.237,0.678c1.106,1.423,2.215,2.843,3.323,4.265   c-0.778,0.68-3.906,3.023-8.082,0.996c-0.075-0.036-0.134-0.062-0.189-0.083c0.003-0.043,0.012-0.084,0.012-0.127   c-0.005-1.09-0.858-1.947-1.951-1.952c-0.971,0-1.739,0.644-1.918,1.547c-0.629,0.085-1.192,0.242-1.675,0.453L7.392,12.475z    M9.518,15.786c0.002,0.304-0.114,0.589-0.327,0.803c-0.217,0.218-0.507,0.337-0.817,0.337H8.368c-0.33,0-0.629-0.119-0.841-0.335   c-0.21-0.213-0.323-0.508-0.318-0.83c0.009-0.655,0.496-1.13,1.164-1.13C9.022,14.634,9.515,15.13,9.518,15.786z M0.932,21.229   c0.122-0.475,0.352-0.923,0.701-1.371l1.23-1.577c0.052-0.029,0.1-0.067,0.136-0.119c0.012-0.017,1.191-1.625,3.453-1.977   c0.074,0.368,0.245,0.703,0.505,0.968c0.363,0.369,0.863,0.572,1.409,0.574c0,0,0.006,0,0.007,0c0.525,0,1.017-0.204,1.385-0.573   c0.137-0.139,0.243-0.298,0.331-0.466c0.019,0.009,0.035,0.014,0.057,0.025c1.323,0.641,2.566,0.884,3.688,0.884   c2.56,0,4.47-1.26,5.243-1.959C20.14,17,21.2,18.365,22.264,19.727c0.477,0.609,0.736,1.129,0.84,1.683   c0.092,0.486,0.041,1.138-0.722,1.473c-0.368,0.162-0.745,0.252-1.06,0.252c-6.216,0.02-12.433,0.016-18.648,0.006   c-0.247,0-0.522-0.049-0.795-0.139C1.03,22.721,0.702,22.107,0.932,21.229z"/></g></svg>