<svg xmlns="http://www.w3.org/2000/svg" data-name="Layer 1" viewBox="0 0 100 125" x="0px" y="0px">
  <path
    d="M40.92456,60.858,58.18689,78.12018a1.6275,1.6275,0,0,1-2.30164,2.30163l-17.2622-17.2622A1.62746,1.62746,0,1,1,40.92456,60.858Zm23.5918,13.23438a1.62765,1.62765,0,0,0,0-2.30164l-9.20655-9.20654a1.6275,1.6275,0,0,0-2.30163,2.30163l9.20654,9.20655A1.62754,1.62754,0,0,0,64.51636,74.09235ZM35.48071,14.29926c-2.7-5.88019-8.19006-9.60022-13.66015-9.28009-4.33.26-7.66,3-9.11,7.51007-1.65,5.1.44995,10.2901,2.54993,13.80017l2.99011-2.98017c-1.53-2.84-2.68005-6.41009-1.67-9.57.93-2.87018,2.88012-4.5401,5.49-4.7,3.75012-.22009,7.74023,2.61994,9.72021,6.92a24.02249,24.02249,0,0,1,1.69263,7.04016l-4.80005-1.14044a4.91617,4.91617,0,0,0-4.64282,1.31494l-7.94824,7.94781a4.98022,4.98022,0,0,0-1.31556,4.642L20.29,59.005a9.66081,9.66081,0,0,0,2.56811,4.59754L52.81091,93.55365a4.95354,4.95354,0,0,0,6.99634,0L86.436,66.92633a4.95282,4.95282,0,0,0,0-6.99591L56.4834,29.97931a9.65782,9.65782,0,0,0-4.598-2.56787l-10.12024-2.4043c.08935,1.39453.127,2.8042.11279,4.20923l9.06677,2.1543a5.57606,5.57606,0,0,1,2.66138,1.48578l29.95276,29.951a.8791.8791,0,0,1,0,1.24169L56.93005,90.67651a.8796.8796,0,0,1-1.24194,0l-29.95276-29.951a5.58653,5.58653,0,0,1-1.48572-2.66119L18.73572,34.86243a.88307.88307,0,0,1,.23376-.82373l7.94824-7.94782a.87046.87046,0,0,1,.82447-.23315l6.01172,1.42846a50.48657,50.48657,0,0,1-.23975,6.2594,7.04166,7.04166,0,1,0,4.02527.90369C38.35278,27.54871,37.64185,18.9903,35.48071,14.29926Z" 
    fill="#459cd6" fill-rule="nonzero" 
    />
</svg>