<svg xmlns="http://www.w3.org/2000/svg" xmlns:xlink="http://www.w3.org/1999/xlink" version="1.1" x="0px" y="0px" viewBox="0 0 100 125" style="enable-background:new 0 0 100 100;" xml:space="preserve"><g><path d="M15.931,34.563V90c0,0.553,0.447,1,1,1h41.575c0.553,0,1-0.447,1-1V34.563c0-0.553-0.447-1-1-1H16.931   C16.378,33.563,15.931,34.011,15.931,34.563z M17.931,35.563h39.575V89H17.931V35.563z"/><path d="M60.446,83.256v1.199h4.2c0.331,0,0.6-0.269,0.6-0.6V28.423c0-0.331-0.269-0.6-0.6-0.6H23.071c-0.331,0-0.6,0.269-0.6,0.6   v4.215h1.199v-3.615h40.376v54.233H60.446z"/><path d="M66.539,77.115v1.199h4.248c0.331,0,0.6-0.269,0.6-0.6V22.281c0-0.331-0.269-0.6-0.6-0.6H29.213   c-0.331,0-0.6,0.269-0.6,0.6v4.204h1.199v-3.604h40.375v54.234H66.539z"/><path d="M72.729,70.975v1.199h4.2c0.331,0,0.6-0.269,0.6-0.6V16.141c0-0.331-0.269-0.6-0.6-0.6H35.354c-0.331,0-0.6,0.269-0.6,0.6   v4.215h1.199V16.74h40.376v54.234H72.729z"/><path d="M83.669,65.432V10c0-0.331-0.269-0.6-0.6-0.6H41.494c-0.331,0-0.6,0.269-0.6,0.6v4.203h1.199V10.6H82.47v54.232h-3.648   v1.199h4.248C83.4,66.031,83.669,65.763,83.669,65.432z"/></g></svg>