<svg xmlns="http://www.w3.org/2000/svg" xmlns:xlink="http://www.w3.org/1999/xlink" viewBox="0 0 35 43.75" version="1.1" x="0px" y="0px"><title>shower</title><desc>Created with Sketch.</desc><g stroke="none" stroke-width="1" fill="none" fill-rule="evenodd"><g><rect stroke="#000000" x="6.5" y="3.5" width="23" height="5" rx="1"/><circle fill="#000000" cx="9.5" cy="15.8333333" r="1"/><circle fill="#000000" cx="9.5" cy="22.1666667" r="1"/><circle fill="#000000" cx="9.5" cy="28.5" r="1"/><circle fill="#000000" cx="26.5" cy="15.8333333" r="1"/><circle fill="#000000" cx="26.5" cy="22.1666667" r="1"/><circle fill="#000000" cx="26.5" cy="28.5" r="1"/><circle fill="#000000" cx="13.5" cy="12.5" r="1"/><circle fill="#000000" cx="13.5" cy="18.8333333" r="1"/><circle fill="#000000" cx="13.5" cy="25.1666667" r="1"/><circle fill="#000000" cx="13.5" cy="31.5" r="1"/><circle fill="#000000" cx="18.5" cy="15.8333333" r="1"/><circle fill="#000000" cx="18.5" cy="22.1666667" r="1"/><circle fill="#000000" cx="18.5" cy="28.5" r="1"/><circle fill="#000000" cx="22.5" cy="12.5" r="1"/><circle fill="#000000" cx="22.5" cy="18.8333333" r="1"/><circle fill="#000000" cx="22.5" cy="25.1666667" r="1"/><circle fill="#000000" cx="22.5" cy="31.5" r="1"/></g></g><text x="0" y="50" fill="#000000" font-size="5px" font-weight="bold" font-family="'Helvetica Neue', Helvetica, Arial-Unicode, Arial, Sans-serif">Created by Colin</text><text x="0" y="55" fill="#000000" font-size="5px" font-weight="bold" font-family="'Helvetica Neue', Helvetica, Arial-Unicode, Arial, Sans-serif">from the Noun Project</text></svg>