<svg xmlns:dc="http://purl.org/dc/elements/1.1/" xmlns:cc="http://creativecommons.org/ns#" xmlns:rdf="http://www.w3.org/1999/02/22-rdf-syntax-ns#" xmlns:svg="http://www.w3.org/2000/svg" xmlns="http://www.w3.org/2000/svg" xmlns:sodipodi="http://sodipodi.sourceforge.net/DTD/sodipodi-0.dtd" xmlns:inkscape="http://www.inkscape.org/namespaces/inkscape" fill="#000000" version="1.1" x="0px" y="0px" viewBox="0 0 100 125"><path style="font-size:medium;font-style:normal;font-variant:normal;font-weight:normal;font-stretch:normal;text-indent:0;text-align:start;text-decoration:none;line-height:normal;letter-spacing:normal;word-spacing:normal;text-transform:none;direction:ltr;block-progression:tb;writing-mode:lr-tb;text-anchor:start;baseline-shift:baseline;opacity:1;color:#000000;fill:#000000;fill-opacity:1;stroke:none;stroke-width:2;marker:none;visibility:visible;display:inline;overflow:visible;enable-background:accumulate;font-family:Sans;-inkscape-font-specification:Sans" d="M 42.90625 11.96875 A 1.0001 1.0001 0 0 0 42.78125 12 A 1.0001 1.0001 0 0 0 42.28125 13.71875 L 48.5625 20 L 42.28125 26.28125 A 1.016466 1.016466 0 1 0 43.71875 27.71875 L 50 21.4375 L 56.28125 27.71875 A 1.016466 1.016466 0 1 0 57.71875 26.28125 L 51.4375 20 L 57.71875 13.71875 A 1.0001 1.0001 0 0 0 56.875 12 A 1.0001 1.0001 0 0 0 56.28125 12.28125 L 50 18.5625 L 43.71875 12.28125 A 1.0001 1.0001 0 0 0 42.90625 11.96875 z M 31.90625 30.96875 A 1.0001 1.0001 0 0 0 31.78125 31 A 1.0001 1.0001 0 0 0 31.28125 32.71875 L 39.5625 41 L 31.28125 49.28125 A 1.0001 1.0001 0 0 0 31.28125 50.6875 L 39.59375 58.96875 L 31.28125 67.28125 A 1.016466 1.016466 0 1 0 32.71875 68.71875 L 41.03125 60.40625 L 49.3125 68.6875 A 1.0001 1.0001 0 0 0 49.4375 68.84375 A 1.0001 1.0001 0 0 0 50.71875 68.6875 L 54.71875 64.6875 A 1.0001 1.0001 0 1 0 53.3125 63.28125 L 50 66.59375 L 42.4375 59 L 46.71875 54.71875 A 1.0001 1.0001 0 0 0 45.875 53 A 1.0001 1.0001 0 0 0 45.28125 53.28125 L 41 57.5625 L 33.40625 49.96875 L 40.96875 42.40625 L 45.28125 46.71875 A 1.016466 1.016466 0 1 0 46.71875 45.28125 L 42.40625 40.96875 L 49.96875 33.40625 L 57.5625 41 L 53.28125 45.28125 A 1.016466 1.016466 0 1 0 54.71875 46.71875 L 59 42.4375 L 66.59375 50 L 59 57.5625 L 54.71875 53.28125 A 1.0001 1.0001 0 0 0 53.78125 53 A 1.0001 1.0001 0 0 0 53.28125 54.71875 L 67.28125 68.71875 A 1.016466 1.016466 0 1 0 68.71875 67.28125 L 60.4375 59 L 68.6875 50.71875 A 1.0001 1.0001 0 0 0 68.6875 49.3125 L 60.40625 41.03125 L 68.71875 32.71875 A 1.0001 1.0001 0 0 0 67.875 31 A 1.0001 1.0001 0 0 0 67.28125 31.28125 L 58.96875 39.59375 L 50.6875 31.28125 A 1.0001 1.0001 0 0 0 49.28125 31.28125 L 41 39.5625 L 32.71875 31.28125 A 1.0001 1.0001 0 0 0 31.90625 30.96875 z M 12.90625 41.96875 A 1.0001 1.0001 0 0 0 12.78125 42 A 1.0001 1.0001 0 0 0 12.28125 43.71875 L 18.5625 50 L 12.28125 56.28125 A 1.016466 1.016466 0 1 0 13.71875 57.71875 L 20 51.4375 L 26.28125 57.71875 A 1.016466 1.016466 0 1 0 27.71875 56.28125 L 21.4375 50 L 27.71875 43.71875 A 1.0001 1.0001 0 0 0 26.875 42 A 1.0001 1.0001 0 0 0 26.28125 42.28125 L 20 48.5625 L 13.71875 42.28125 A 1.0001 1.0001 0 0 0 12.90625 41.96875 z M 72.90625 41.96875 A 1.0001 1.0001 0 0 0 72.78125 42 A 1.0001 1.0001 0 0 0 72.28125 43.71875 L 78.5625 50 L 72.28125 56.28125 A 1.016466 1.016466 0 1 0 73.71875 57.71875 L 80 51.4375 L 86.28125 57.71875 A 1.016466 1.016466 0 1 0 87.71875 56.28125 L 81.4375 50 L 87.71875 43.71875 A 1.0001 1.0001 0 0 0 86.875 42 A 1.0001 1.0001 0 0 0 86.28125 42.28125 L 80 48.5625 L 73.71875 42.28125 A 1.0001 1.0001 0 0 0 72.90625 41.96875 z M 42.90625 71.96875 A 1.0001 1.0001 0 0 0 42.78125 72 A 1.0001 1.0001 0 0 0 42.28125 73.71875 L 48.5625 80 L 42.28125 86.28125 A 1.016466 1.016466 0 1 0 43.71875 87.71875 L 50 81.4375 L 56.28125 87.71875 A 1.016466 1.016466 0 1 0 57.71875 86.28125 L 51.4375 80 L 57.71875 73.71875 A 1.0001 1.0001 0 0 0 56.875 72 A 1.0001 1.0001 0 0 0 56.28125 72.28125 L 50 78.5625 L 43.71875 72.28125 A 1.0001 1.0001 0 0 0 42.90625 71.96875 z "/></svg>