<svg xmlns="http://www.w3.org/2000/svg" viewBox="0 0 100 125"><path d="M49.164 52.574c-4.537-4.536-10.495-6.804-16.455-6.804-5.962 0-11.927 2.271-16.469 6.81-4.396 4.391-6.816 10.246-6.816 16.459a23.123 23.123 0 006.816 16.459c4.442 4.438 10.458 6.801 16.532 6.801 3.19 0 6.396-.648 9.409-2a1.743 1.743 0 00.888-2.301 1.761 1.761 0 00-1.607-1.051c-.237 0-.479.049-.71.152a19.62 19.62 0 01-7.992 1.691c-5.161 0-10.267-2.004-14.038-5.775-3.741-3.73-5.793-8.697-5.793-13.977 0-5.283 2.052-10.25 5.793-13.986 3.853-3.852 8.916-5.778 13.979-5.778 5.063 0 10.128 1.927 13.983 5.778a19.735 19.735 0 015.424 17.758 1.759 1.759 0 001.725 2.095c.825 0 1.555-.592 1.72-1.43a23.277 23.277 0 00-6.389-20.901z"/><path d="M86.4 9.314A28.66 28.66 0 0067.265 2a28.744 28.744 0 00-21.407 9.57L20.155 40.312l-6.611 7.393C7.704 52.993 4.028 60.63 4.028 69.11 4.028 85.04 16.983 98 32.907 98c9.581 0 18.083-4.694 23.34-11.899l6.719-7.514 25.691-28.731c5.113-5.716 7.695-13.08 7.27-20.737-.426-7.66-3.809-14.693-9.527-19.805zM32.907 95C18.614 95 7.028 83.409 7.028 69.11c0-10.164 5.866-18.958 14.397-23.19l2.068-.817a25.537 25.537 0 019.414-1.796c14.232 0 25.81 11.575 25.81 25.804 0 2.236-.298 4.492-.887 6.706l-.488 1.838C53.813 87.754 44.21 95 32.907 95zm53.514-47.145L60.84 76.464c.619-2.35.951-4.812.951-7.354 0-15.923-12.958-28.878-28.884-28.878a28.71 28.71 0 00-10.393 1.942l25.58-28.604C53.171 7.892 60.202 5 67.265 5a25.617 25.617 0 0117.136 6.551c10.588 9.465 11.487 25.722 2.02 36.304z"/><text y="115" font-size="5" font-weight="bold" font-family="'Helvetica Neue', Helvetica, Arial-Unicode, Arial, Sans-serif">Created by Skeccio</text><text y="120" font-size="5" font-weight="bold" font-family="'Helvetica Neue', Helvetica, Arial-Unicode, Arial, Sans-serif">from the Noun Project</text></svg>