<svg xmlns="http://www.w3.org/2000/svg" data-name="Layer 1" viewBox="0 0 100 125"><path d="M40.925 60.858L58.187 78.12a1.627 1.627 0 01-2.302 2.302L38.623 63.16a1.627 1.627 0 112.302-2.302zm23.591 13.234a1.628 1.628 0 000-2.301l-9.206-9.207a1.627 1.627 0 00-2.302 2.302l9.207 9.206a1.628 1.628 0 002.301 0zM35.481 14.3c-2.7-5.88-8.19-9.6-13.66-9.28-4.33.26-7.66 3-9.11 7.51-1.65 5.1.45 10.29 2.55 13.8l2.99-2.98c-1.53-2.84-2.68-6.41-1.67-9.57.93-2.87 2.88-4.54 5.49-4.7 3.75-.22 7.74 2.62 9.72 6.92a24.022 24.022 0 011.692 7.04l-4.8-1.14a4.916 4.916 0 00-4.642 1.315l-7.949 7.948a4.98 4.98 0 00-1.315 4.642l5.513 23.201a9.66 9.66 0 002.568 4.598l29.953 29.95a4.954 4.954 0 006.996 0l26.629-26.627a4.953 4.953 0 000-6.996L56.483 29.98a9.658 9.658 0 00-4.598-2.569l-10.12-2.404c.09 1.395.127 2.804.113 4.21l9.067 2.154a5.576 5.576 0 012.661 1.485L83.56 62.807a.88.88 0 010 1.242L56.93 90.677a.88.88 0 01-1.242 0L25.735 60.726a5.587 5.587 0 01-1.485-2.662l-5.514-23.202a.883.883 0 01.233-.823l7.949-7.948a.87.87 0 01.824-.233l6.012 1.428a50.487 50.487 0 01-.24 6.26 7.042 7.042 0 104.025.903c.814-6.9.103-15.459-2.058-20.15z" fill="#459cd6"/></svg>