<svg xmlns="http://www.w3.org/2000/svg" viewBox="0 0 64 80"><path d="M32 12.802A19.198 19.198 0 1051.198 32 19.22 19.22 0 0032 12.802zm0 36.396A17.198 17.198 0 1149.198 32 17.218 17.218 0 0132 49.198zm7.915-23.093a1 1 0 01.181 1.402l-9.405 12.207a.998.998 0 01-.792.39h-.002a1.001 1.001 0 01-.792-.392L23.9 32.907a1 1 0 011.589-1.215l4.412 5.768 8.61-11.175a.998.998 0 011.403-.181zm16.822 10.662c1.288-1.341 2.747-2.861 2.747-4.767s-1.46-3.426-2.747-4.767a8.457 8.457 0 01-1.992-2.624 8.773 8.773 0 01.05-3.44c.254-1.893.515-3.85-.56-5.327-1.085-1.491-3.04-1.847-4.93-2.19a8.662 8.662 0 01-3.251-.996 8.597 8.597 0 01-1.919-2.754c-.915-1.705-1.86-3.47-3.64-4.047-1.706-.556-3.47.29-5.176 1.108A8.857 8.857 0 0132 8.091a8.857 8.857 0 01-3.32-1.128c-1.704-.817-3.467-1.663-5.175-1.108-1.78.577-2.725 2.341-3.64 4.047a8.597 8.597 0 01-1.918 2.754 8.673 8.673 0 01-3.252.996c-1.89.343-3.845.699-4.931 2.191-1.074 1.476-.813 3.434-.56 5.327a8.773 8.773 0 01.05 3.44 8.457 8.457 0 01-1.99 2.624c-1.289 1.34-2.748 2.86-2.748 4.766s1.46 3.426 2.747 4.767a8.457 8.457 0 011.992 2.624 8.773 8.773 0 01-.05 3.44c-.254 1.893-.515 3.851.56 5.328 1.085 1.49 3.04 1.846 4.93 2.19a8.662 8.662 0 013.251.996 8.597 8.597 0 011.919 2.754c.915 1.705 1.86 3.47 3.64 4.047 1.706.554 3.47-.291 5.176-1.109A8.857 8.857 0 0132 55.91a8.857 8.857 0 013.32 1.128 9.864 9.864 0 004.023 1.286 3.694 3.694 0 001.152-.177c1.78-.577 2.725-2.342 3.64-4.047a8.597 8.597 0 011.919-2.754 8.673 8.673 0 013.251-.996c1.89-.344 3.845-.7 4.931-2.192 1.074-1.475.813-3.433.56-5.327a8.773 8.773 0 01-.05-3.44 8.457 8.457 0 011.99-2.623zm-3.894 2.007a10.031 10.031 0 00-.03 4.32c.201 1.504.409 3.059-.194 3.887-.615.844-2.169 1.127-3.672 1.4a9.924 9.924 0 00-4.07 1.346 9.829 9.829 0 00-2.505 3.426c-.728 1.358-1.48 2.76-2.495 3.09-.945.306-2.342-.362-3.693-1.01A10.14 10.14 0 0032 53.91a10.14 10.14 0 00-4.184 1.325c-1.35.648-2.747 1.315-3.693 1.01-1.015-.33-1.767-1.733-2.495-3.09a9.829 9.829 0 00-2.505-3.426 9.924 9.924 0 00-4.07-1.347c-1.504-.273-3.057-.557-3.672-1.4-.603-.829-.395-2.384-.195-3.887a10.031 10.031 0 00-.029-4.32 9.678 9.678 0 00-2.451-3.392C7.629 34.26 6.516 33.101 6.516 32s1.113-2.26 2.19-3.382a9.678 9.678 0 002.451-3.391 10.031 10.031 0 00.03-4.322c-.201-1.503-.409-3.057.194-3.886.615-.844 2.169-1.126 3.672-1.4a9.924 9.924 0 004.07-1.346 9.829 9.829 0 002.505-3.426c.728-1.357 1.48-2.76 2.495-3.09.942-.307 2.342.361 3.693 1.01A10.14 10.14 0 0032 10.091a10.14 10.14 0 004.184-1.324c1.35-.648 2.749-1.316 3.693-1.01 1.015.329 1.767 1.732 2.495 3.09a9.829 9.829 0 002.505 3.426 9.924 9.924 0 004.07 1.346c1.504.274 3.057.557 3.672 1.4.603.829.395 2.383.195 3.886a10.031 10.031 0 00.029 4.322 9.678 9.678 0 002.451 3.391c1.077 1.122 2.19 2.282 2.19 3.382s-1.113 2.26-2.19 3.382a9.678 9.678 0 00-2.451 3.392z" fill="#459cd6"/></svg>