<svg xmlns="http://www.w3.org/2000/svg" width="48" height="50" viewBox="0 0 21000 21100" shape-rendering="geometricPrecision" text-rendering="geometricPrecision" image-rendering="optimizeQuality" fill-rule="evenodd" clip-rule="evenodd"><path class="fil0" d="M10191 11094c-953-953-2204-1429-3456-1429s-2505 477-3458 1430c-923 922-1431 2152-1431 3456 0 1306 508 2533 1431 3456 933 932 2196 1428 3472 1428 670 0 1343-136 1976-420 185-82 268-299 186-483-61-138-196-221-337-221-50 0-101 10-149 32-537 239-1109 355-1678 355-1084 0-2156-421-2948-1213-786-783-1217-1826-1217-2935s431-2153 1217-2937c809-809 1872-1213 2936-1213 1063 0 2127 405 2936 1213 978 978 1403 2370 1139 3729-39 201 92 393 291 433 24 5 47 7 71 7 173 0 327-124 361-300 310-1597-193-3238-1342-4389z"/><path class="fil0" d="M18011 2009c-1107-990-2534-1536-4018-1536-1715 0-3353 732-4495 2010L4100 8519l-1388 1553c-1226 1110-1998 2714-1998 4495 0 3345 2721 6067 6065 6067 2012 0 3797-986 4901-2499l1411-1578 5395-6034c1074-1200 1616-2747 1527-4355-89-1609-800-3086-2001-4159zM6777 20003c-3002 0-5435-2434-5435-5437 0-2134 1232-3981 3023-4870l434-172c634-250 1299-377 1977-377 2989 0 5420 2431 5420 5419 0 470-63 943-186 1408l-102 386c-741 2121-2758 3642-5131 3642zm11238-9900l-5372 6008c130-494 200-1011 200-1544 0-3344-2721-6064-6066-6064-769 0-1505 145-2183 408l5372-6007c1066-1192 2543-1800 4026-1800 1282 0 2569 454 3599 1376 2223 1988 2412 5402 424 7624z"/></svg>