<svg xmlns="http://www.w3.org/2000/svg" viewBox="0 0 100 125"><path d="M15.931 34.563V90a1 1 0 001 1h41.575a1 1 0 001-1V34.563a1 1 0 00-1-1H16.931a1 1 0 00-1 1zm2 1h39.575V89H17.931V35.563z"/><path d="M60.446 83.256v1.199h4.2a.6.6 0 00.6-.6V28.423a.6.6 0 00-.6-.6H23.071a.6.6 0 00-.6.6v4.215h1.199v-3.615h40.376v54.233h-3.6z"/><path d="M66.539 77.115v1.199h4.248a.6.6 0 00.6-.6V22.281a.6.6 0 00-.6-.6H29.213a.6.6 0 00-.6.6v4.204h1.199v-3.604h40.375v54.234h-3.648z"/><path d="M72.729 70.975v1.199h4.2a.6.6 0 00.6-.6V16.141a.6.6 0 00-.6-.6H35.354a.6.6 0 00-.6.6v4.215h1.199V16.74h40.376v54.234h-3.6z"/><path d="M83.669 65.432V10a.6.6 0 00-.6-.6H41.494a.6.6 0 00-.6.6v4.203h1.199V10.6H82.47v54.232h-3.648v1.199h4.248a.6.6 0 00.599-.599z"/></svg>