<svg xmlns="http://www.w3.org/2000/svg" viewBox="0 0 100 125"><path style="text-indent:0;text-align:start;line-height:normal;text-transform:none;block-progression:tb;marker:none;-inkscape-font-specification:Sans" d="M42.906 11.969a1 1 0 00-.125.031 1 1 0 00-.5 1.719L48.563 20l-6.282 6.281a1.016 1.016 0 101.438 1.438L50 21.437l6.281 6.282a1.016 1.016 0 101.438-1.438L51.437 20l6.282-6.281A1 1 0 0056.875 12a1 1 0 00-.594.281L50 18.562l-6.281-6.28a1 1 0 00-.813-.313zm-11 19a1 1 0 00-.125.031 1 1 0 00-.5 1.719L39.563 41l-8.282 8.281a1 1 0 000 1.407l8.313 8.28-8.313 8.313a1.016 1.016 0 101.438 1.438l8.312-8.313 8.282 8.282a1 1 0 00.124.156 1 1 0 001.282-.156l4-4a1 1 0 10-1.407-1.407L50 66.594 42.437 59l4.282-4.281A1 1 0 0045.875 53a1 1 0 00-.594.281L41 57.563l-7.594-7.594 7.563-7.563 4.312 4.313a1.016 1.016 0 101.438-1.438l-4.313-4.312 7.563-7.563L57.562 41l-4.28 4.281a1.016 1.016 0 101.437 1.438L59 42.437 66.594 50 59 57.563l-4.281-4.282A1 1 0 0053.78 53a1 1 0 00-.5 1.719l14 14a1.016 1.016 0 101.438-1.438L60.438 59l8.25-8.281a1 1 0 000-1.407l-8.282-8.28 8.313-8.313A1 1 0 0067.875 31a1 1 0 00-.594.281l-8.312 8.313-8.282-8.313a1 1 0 00-1.406 0L41 39.563l-8.281-8.282a1 1 0 00-.813-.312zm-19 11a1 1 0 00-.125.031 1 1 0 00-.5 1.719L18.562 50l-6.28 6.281a1.016 1.016 0 101.437 1.438L20 51.437l6.281 6.282a1.016 1.016 0 101.438-1.438L21.437 50l6.282-6.281A1 1 0 0026.875 42a1 1 0 00-.594.281L20 48.563l-6.281-6.282a1 1 0 00-.813-.312zm60 0a1 1 0 00-.125.031 1 1 0 00-.5 1.719L78.562 50l-6.28 6.281a1.016 1.016 0 101.437 1.438L80 51.437l6.281 6.282a1.016 1.016 0 101.438-1.438L81.438 50l6.28-6.281A1 1 0 0086.876 42a1 1 0 00-.594.281L80 48.563l-6.281-6.282a1 1 0 00-.813-.312zm-30 30a1 1 0 00-.125.031 1 1 0 00-.5 1.719L48.563 80l-6.282 6.281a1.016 1.016 0 101.438 1.438L50 81.438l6.281 6.28a1.016 1.016 0 101.438-1.437L51.437 80l6.282-6.281A1 1 0 0056.875 72a1 1 0 00-.594.281L50 78.562l-6.281-6.28a1 1 0 00-.813-.313z" font-weight="400" color="#000" overflow="visible" font-family="Sans"/></svg>